<svg width="357" height="369" viewBox="0 0 357 369" fill="none" xmlns="http://www.w3.org/2000/svg">
<path d="M88.5657 361.868C79.8656 357.031 72.1429 351.046 65.7889 344.159C58.6528 337.109 52.2987 329.567 46.238 321.86C32.1613 304.644 21.2128 285.87 13.5879 265.949C4.39896 242.912 0 220.777 0 199.216C0 175.113 6.2563 154.044 18.3779 136.336C27.3713 122.563 40.6659 110.921 56.7955 102.887C72.4362 94.689 90.5208 90.2619 108.801 90.016C115.253 90.016 122.193 90.8358 129.525 92.3115C134.804 93.5412 141.255 95.5088 149.174 98.0502C159.145 101.248 164.717 103.297 166.574 103.789C172.439 105.593 177.327 106.33 181.237 106.33C184.17 106.33 188.373 105.511 193.065 104.363C195.705 103.543 200.69 102.231 207.924 99.6079C215.06 97.4763 220.632 95.5907 225.031 94.1971C231.874 92.4754 238.424 90.9998 244.289 90.18C251.425 89.2782 258.561 88.9502 265.306 89.4421C278.307 90.18 290.234 92.4754 300.889 95.8367C319.56 102.149 334.614 111.987 345.856 126.006C341.066 128.465 336.667 131.253 332.561 134.45C323.568 141.091 316.139 148.879 309.98 157.569C302.062 169.374 298.054 182.819 298.152 196.264C298.445 212.907 303.528 227.499 313.499 240.207C320.635 249.471 330.117 257.341 341.653 263.817C347.42 267.015 352.308 269.31 357 270.786C354.752 276.525 352.406 282.099 349.668 287.674C343.314 300.135 335.689 311.941 326.794 323.172C318.876 332.846 312.619 340.06 307.927 344.815C300.596 352.112 293.459 357.687 286.323 361.622C278.405 365.967 269.119 368.344 259.734 368.344C253.282 368.59 246.928 367.852 240.77 366.459C235.491 364.983 230.212 363.343 225.129 361.458C219.752 359.408 214.278 357.605 208.608 356.211C201.57 354.653 194.434 353.915 187.298 353.915C179.966 353.915 172.732 354.735 166.085 356.129C160.318 357.523 154.843 359.162 149.369 361.13C141.744 363.835 136.661 365.639 133.728 366.377C127.863 367.852 121.802 368.754 115.644 369C106.162 369 97.2659 366.705 88.468 362.114L88.5657 361.868ZM214.083 78.2106C201.668 83.4575 189.742 85.671 177.913 84.9331C176.056 74.9314 177.913 64.7656 182.801 53.6161C187.2 44.1062 193.065 35.4981 201.081 27.7918C209.488 19.8396 219.557 13.1991 230.896 8.44412C243.018 3.19729 254.553 0.409909 265.502 0C266.968 10.4117 265.502 20.7414 260.907 31.8089C256.704 41.6467 250.447 50.7467 242.627 58.7809C234.611 66.7332 224.738 73.3737 213.594 78.1286L214.083 78.2106Z" fill="black"/>
</svg>
